<?xml version="1.0" encoding="UTF-8"?>
<svg width="512" height="512" viewBox="0 0 512 512" xmlns="http://www.w3.org/2000/svg">
  <!-- Background circle -->
  <circle cx="256" cy="256" r="240" fill="#667eea" stroke="#4a5568" stroke-width="8"/>
  
  <!-- PDF Icon -->
  <rect x="140" y="120" width="180" height="240" rx="8" fill="#e53e3e" opacity="0.9"/>
  <rect x="155" y="135" width="150" height="210" rx="4" fill="#ffffff"/>
  
  <!-- Text lines representing content -->
  <rect x="170" y="160" width="120" height="8" rx="4" fill="#e53e3e"/>
  <rect x="170" y="180" width="100" height="8" rx="4" fill="#e53e3e"/>
  <rect x="170" y="200" width="110" height="8" rx="4" fill="#e53e3e"/>
  <rect x="170" y="220" width="90" height="8" rx="4" fill="#e53e3e"/>
  
  <!-- AI Brain icon -->
  <circle cx="380" cy="160" r="50" fill="#48bb78" opacity="0.9"/>
  <path d="M350 140 Q 360 130, 380 140 Q 400 130, 410 140 Q 415 150, 410 170 Q 400 180, 380 170 Q 360 180, 350 170 Q 345 150, 350 140 Z" fill="#ffffff"/>
  
  <!-- Connection lines (representing AI processing) -->
  <line x1="320" y1="200" x2="350" y2="170" stroke="#48bb78" stroke-width="4" opacity="0.7"/>
  <line x1="320" y1="220" x2="350" y2="180" stroke="#48bb78" stroke-width="4" opacity="0.7"/>
  <line x1="320" y1="240" x2="350" y2="190" stroke="#48bb78" stroke-width="4" opacity="0.7"/>
  
  <!-- PDF text -->
  <text x="200" y="390" font-family="Arial, sans-serif" font-size="36" font-weight="bold" fill="#e53e3e" text-anchor="middle">PDF</text>
  
  <!-- AI text -->
  <text x="380" y="250" font-family="Arial, sans-serif" font-size="24" font-weight="bold" fill="#48bb78" text-anchor="middle">AI</text>
</svg>
